<svg viewBox="0 0 512 512" xmlns="http://www.w3.org/2000/svg" fill-rule="evenodd" clip-rule="evenodd" stroke-linejoin="round" stroke-miterlimit="2"><path d="M256.54 6.541c-9.546 0-19.109.732-28.09 1.464a299.28 299.28 0 0137.686 30.4l9.562 8.881-9.562 9.563a257.875 257.875 0 00-23.649 25.129v.731a52.243 52.243 0 00-3.692 4.44 140.62 140.62 0 0117.745-.731c44.686.599 87.327 18.792 118.71 50.59A169.997 169.997 0 01424.21 256.4c0 44.687-17.579 87.577-48.96 119.375a170.021 170.021 0 01-118.71 50.607 165.673 165.673 0 01-88.691-25.13 340.864 340.864 0 01-38.417 2.23 140.775 140.775 0 01-17.761-.766 576.943 576.943 0 005.205 59.854 245.585 245.585 0 00139.664 42.89c32.762 0 65.192-6.453 95.46-18.992a249.758 249.758 0 0080.94-54.066 249.229 249.229 0 0054.067-80.941A249.382 249.382 0 00505.999 256c0-32.762-6.453-65.192-18.992-95.46A249.229 249.229 0 00432.94 79.6 249.758 249.758 0 00352 25.532a249.382 249.382 0 00-95.46-18.992zM121.3 46.455a247.805 247.805 0 0154.665-26.61 383.443 383.443 0 00-17.047 35.457 343.067 343.067 0 00-37.618-8.847zm-14.02 90.703c9.962-.665 19.442-1.314 29.536-1.314a151.088 151.088 0 00-26.609 34.01 253.634 253.634 0 01-5.92-32.497l2.993-.2zm-8.88 250.74v1.463l-2.246-.665a293.045 293.045 0 01-56.161-10.361l-1.464-.732.732-1.497a397.778 397.778 0 0120.672-51.654l.765-1.497 1.464.748a379.056 379.056 0 0038.433 19.109l1.497.732v1.463a268.584 268.584 0 00-3.692 42.89zm0 14.734v-1.463h-1.514a381.511 381.511 0 01-48.029-8.116l-4.44-.732 2.228 3.692a258.618 258.618 0 0052.486 57.625l2.96 2.96v-5.188a385.926 385.926 0 01-3.691-48.778zM238.795 48.65c-5.155 5.189-10.36 11.092-15.516 17.013-.632.732-4.424 5.155-8.881 11.126-10.328-4.923-20.921-9.147-31.415-13.338l-1.813-.715a303.496 303.496 0 0120.672-41.427 439.66 439.66 0 0136.953 27.34zM54.045 208.304l.733 1.463 1.463-.732a384.844 384.844 0 0136.221-22.9l1.464-.732v-1.497a286.994 286.994 0 01-8.116-43.555v-1.497h-1.463A321.897 321.897 0 0030.38 153.64l-1.48.732.732 1.496a224.993 224.993 0 0024.414 52.437zm-4.423 25.112l1.464-1.464.881 2.112a389.263 389.263 0 0025.877 32.48l.732.748-.732 1.497a333.041 333.041 0 00-22.301 33.993l-.732 1.463-1.464-.731A425.24 425.24 0 0111.92 272.48l-1.496-1.497 1.496-1.347a344.828 344.828 0 0137.702-36.221zm79.794 156.693h24.38l-3.692-2.96a153.998 153.998 0 01-33.993-38.433v-.732l-2.943-1.497v2.229a335.975 335.975 0 00-2.96 39.198v1.464h1.463c2.977 0 5.92.182 8.88.365 2.96.183 5.904.366 8.865.366zM151.6 77.504a294.07 294.07 0 00-10.361 36.221 325.855 325.855 0 00-38.417 2.129 361.767 361.767 0 01.732-48.778 351.297 351.297 0 0148.046 10.428zm13.288 35.423a216.788 216.788 0 0134.758-16.98 205.86 205.86 0 00-26.643-11.076c-2.927 8.848-5.887 18.477-8.115 28.056zM47.41 315.587h1.447l-.715 2.928a419.267 419.267 0 00-17.745 41.426l-1.463 3.692-1.464-3.692a233.405 233.405 0 01-19.973-69.466l-.732-4.457 3.692 2.96a423.418 423.418 0 0036.953 26.61zm33.228-236.62a247.074 247.074 0 00-38.417 49.51c12.457-3.676 25.678-6.586 38.866-9.496l.3-.067c-.749-13.354-.749-26.626-.749-39.947zm7.4 170.713v4.424l-2.111-3.725c-5.605-6.153-10.76-13.188-15.833-20.073-1.63-2.195-3.226-4.39-4.84-6.52l-2.228-1.496 1.497-.732c9.18-6.403 18.36-12.09 27.524-17.778l1.147-.715 3.692-2.195-1.463 4.457a174.559 174.559 0 00-7.384 44.353zm2.196 30.318l-.732-4.424-2.195 3.692c-6.652 9.563-13.321 19.94-19.125 30.301l-.765 1.464 1.513.732c10.028 5.754 20.788 10.793 31.565 15.848l.931.433 3.692 1.463-1.463-3.692a163.828 163.828 0 01-13.421-45.817zm-47.28-60.735l-1.498.732A183.576 183.576 0 008.96 251.144L6 254.104v-4.424a249.317 249.317 0 0111.824-70.214l1.497-4.424 1.464 3.692a402.272 402.272 0 0021.436 39.032l.732 1.497z" fill="#43b049"/></svg>