<svg viewBox="0 0 512 512" xmlns="http://www.w3.org/2000/svg" fill-rule="evenodd" clip-rule="evenodd" stroke-linejoin="round" stroke-miterlimit="2"><path d="M14.068 504.008L253.486 258.62c1.529-1.503 1.699-3.898.51-5.656-14.523-20.324-41.446-23.849-51.383-37.505-29.47-40.452-36.945-63.35-49.6-61.931a3.711 3.711 0 00-2.292 1.214l-86.544 88.65C14.493 294.35 7.36 406.67 6 500.73v.017c0 2.573 2.123 4.688 4.671 4.688 1.36 0 2.548-.51 3.397-1.427z" fill="#017cee" fill-rule="nonzero"/><path d="M503.945 497.953l-245.363-239.41a4.48 4.48 0 00-5.69-.534c-20.299 14.565-23.866 41.42-37.455 51.374-40.511 29.487-63.357 36.97-61.998 49.641.17.884.594 1.69 1.273 2.293l88.667 86.476c50.958 49.752 163.236 56.903 257.253 58.194 2.633 0 4.756-2.115 4.756-4.688a4.59 4.59 0 00-1.443-3.346z" fill="#00ad46" fill-rule="nonzero"/><path d="M243.38 447.819c-27.858-27.178-40.767-80.939 12.569-191.798-86.713 38.788-117.118 89.771-102.17 104.37l89.6 87.428z" fill="#04d659" fill-rule="nonzero"/><path d="M497.915 8.026L258.582 253.414c-1.529 1.503-1.784 3.898-.595 5.656 14.608 20.324 41.446 23.849 51.383 37.505 29.47 40.452 37.03 63.35 49.684 61.931.85-.127 1.699-.552 2.293-1.214l86.459-88.65c49.769-50.958 56.903-163.278 58.177-257.338v-.009c0-2.573-2.123-4.696-4.671-4.696-1.274 0-2.463.518-3.397 1.427z" fill="#00c7d4" fill-rule="nonzero"/><path d="M447.806 268.642c-27.178 27.857-80.938 40.766-191.772-12.62 38.728 86.79 89.771 117.203 104.379 102.246l87.393-89.626z" fill="#11e1ee" fill-rule="nonzero"/><path d="M7.953 14.081l245.363 239.384a4.48 4.48 0 005.69.535c20.299-14.566 23.866-41.42 37.54-51.374 40.426-29.488 63.272-36.97 61.914-49.642-.17-.883-.595-1.698-1.274-2.301l-88.582-86.476C217.646 14.455 105.284 7.304 11.266 6.013h-.085c-2.548 0-4.671 2.115-4.671 4.688 0 1.274.51 2.497 1.443 3.38z" fill="#e43921" fill-rule="nonzero"/><path d="M268.604 64.215c27.857 27.178 40.766 80.939-12.655 191.806 86.798-38.787 117.203-89.78 102.256-104.37l-89.601-87.436z" fill="#ff7557"/><path d="M64.262 243.4c27.178-27.856 80.853-40.766 191.772 12.621-38.813-86.79-89.771-117.203-104.379-102.247l-87.393 89.627z" fill="#0cb6ff" fill-rule="nonzero"/><circle cx="1.26" cy="1.26" r="1.26" fill="#4a4848" transform="translate(245.333 245.278) scale(8.493)"/></svg>