<svg viewBox="0 0 16 16" fill="#000000" xmlns="http://www.w3.org/2000/svg" id="Java-Fill--Streamline-Remix-Fill" height="16" width="16">
  <desc>
    Java Fill Streamline Icon: https://streamlinehq.com
  </desc>
  <path d="m10.4254 3.044033333333333 0.03713333333333333 0.021233333333333333c-0.5049333333333332 0.2669333333333333 -1.9489333333333332 1.1261133333333333 -1.9489333333333332 2.2211866666666666 0 0.36927999999999994 0.21133333333333332 0.72576 0.4093333333333333 1.0598866666666666 0.17466666666666666 0.2947066666666667 0.3390666666666667 0.57206 0.3390666666666667 0.8253933333333332 0 0.6385333333333333 -0.6221333333333333 1.1330666666666667 -0.9734666666666666 1.3614666666666664l-0.0668 -0.038599999999999995c0.13293333333333332 -0.16206666666666666 0.29619999999999996 -0.43320000000000003 0.29619999999999996 -0.7223999999999999 0 -0.39879999999999993 -0.2043333333333333 -0.7173333333333334 -0.4119333333333333 -1.0409333333333333 -0.21433333333333332 -0.33416 -0.43226666666666663 -0.6737866666666666 -0.43226666666666663 -1.1129866666666666 0 -1.52848 2.0768666666666666 -2.3482466666666664 2.751666666666667 -2.5742466666666663Zm-2.7297999999999996 0.8082866666666666c0.8349333333333333 -0.74682 1.7474 -1.5630799999999998 1.7474 -2.7904066666666663 0 -0.5554446666666666 -0.22713333333333333 -0.9099673333333334 -0.3399333333333333 -1.0517814666666667l-0.036066666666666664 0.02076973333333333c0.0276 0.1102224 0.06706666666666666 0.3144357333333333 0.06706666666666666 0.5809017333333333 0 1.11729 -0.9478 1.9006366666666665 -1.8653999999999997 2.6590366666666663C6.407653333333333 3.9824333333333333 5.573239999999999 4.672066666666666 5.573239999999999 5.59498c0 1.3228866666666665 1.3055599999999998 2.13722 1.85656 2.4808866666666667 0.014666666666666665 0.009133333333333334 0.0288 0.017933333333333332 0.042333333333333334 0.0264l0.033666666666666664 -0.0194c-0.03013333333333333 -0.03253333333333333 -0.062 -0.06646666666666666 -0.0952 -0.1018 -0.42386666666666667 -0.4509333333333333 -1.06772 -1.1359333333333332 -1.06772 -2.1829199999999997 0 -0.7357666666666667 0.6487866666666666 -1.3161133333333332 1.35272 -1.9458266666666666Zm-0.3017333333333333 6.604813333333333c1.1763333333333332 0 1.9989333333333335 -0.1686 2.364133333333333 -0.2720666666666667l0.5548666666666666 0.3204666666666667c-0.5287333333333333 0.26826666666666665 -1.7008666666666665 0.47306666666666664 -2.9212666666666665 0.47306666666666664 -1.43556 0 -3.004713333333333 -0.3082 -3.0098333333333334 -0.7185333333333334 -0.0029666666666666665 -0.22613333333333333 0.5105666666666666 -0.3771333333333333 1.0633666666666666 -0.47486666666666666l0.033306666666666665 0.019333333333333334s-0.18716666666666665 0.06746666666666666 -0.18522 0.22226666666666664c0.00294 0.23273333333333335 0.94622 0.4303333333333333 2.1006466666666666 0.4303333333333333ZM5.04162 11.904666666666666c0 -0.2716666666666666 0.55874 -0.3999333333333333 0.8151066666666666 -0.45099999999999996l0.03328 0.019266666666666665c-0.04406666666666667 0.032799999999999996 -0.06772 0.07766666666666666 -0.06772 0.11553333333333334 0 0.17826666666666668 0.6195333333333333 0.34113333333333334 1.5704466666666665 0.34113333333333334 0.852 0 1.3251333333333333 -0.10513333333333333 1.6059999999999999 -0.17206666666666665l0.6602666666666666 0.38206666666666667c-0.0294 0.02113333333333333 -0.6798666666666666 0.4297333333333333 -2.2678666666666665 0.4297333333333333 -1.15408 0 -2.3495133333333333 -0.28826666666666667 -2.3495133333333333 -0.6646666666666666Zm5.68558 -1.1520666666666666c0.787 -0.44839999999999997 1.5744 -0.9790666666666665 1.6187999999999998 -1.8313333333333333 0.029199999999999997 -0.5590666666666666 -0.4844 -0.9695333333333332 -1.0464666666666667 -0.8595333333333333l0.029799999999999997 -0.075 0.00039999999999999996 -0.0013333333333333333c0.1412 -0.043 0.31526666666666664 -0.07753333333333333 0.5109333333333332 -0.07753333333333333 0.6284 0 1.1103999999999998 0.3768 1.1721333333333332 0.9042 0.12386666666666665 1.0574666666666666 -1.3745333333333332 1.7454 -2.2142666666666666 1.9816666666666667l-0.07133333333333333 -0.04113333333333333Zm1.3165333333333333 1.9918666666666667c0.006333333333333333 0.7266666666666667 -2.4652666666666665 1.1590666666666665 -4.674333333333333 1.1782666666666666 -1.9074266666666664 0.016733333333333333 -4.982806666666667 -0.3437333333333333 -4.989179999999999 -1.0697333333333332 -0.0044199999999999995 -0.5022 1.3337266666666665 -0.8499999999999999 2.05996 -0.95l0.07656666666666666 0.04373333333333333s-1.0837266666666667 0.251 -1.07974 0.7077333333333333c0.003986666666666666 0.45553333333333335 2.2832333333333334 0.8497333333333332 3.92866 0.8354 2.5500666666666665 -0.022266666666666664 4.276133333333333 -0.4381333333333333 4.480333333333333 -1.0011333333333332l0.03626666666666666 -0.020733333333333333c0.07453333333333333 0.05453333333333333 0.16033333333333333 0.14473333333333332 0.16146666666666665 0.27646666666666664ZM4.287546666666667 14.224999999999998c0.9019133333333333 0.15159999999999998 1.97406 0.22426666666666664 2.8521199999999998 0.2165333333333333 4.1390666666666664 -0.03613333333333333 5.306533333333333 -1.0537999999999998 5.487466666666666 -1.2746l0.0312 0.0182c-0.04326666666666666 0.8055333333333332 -2.2316 1.4748666666666665 -4.9307333333333325 1.4984666666666666 -1.37442 0.011933333333333332 -2.62518 -0.14713333333333334 -3.5235733333333332 -0.4105333333333333l0.08352 -0.04806666666666666Zm1.7341799999999998 -6.188933333333333c-0.7190799999999999 0.05533333333333333 -2.2634733333333332 0.2837333333333333 -2.2634733333333332 0.6908666666666666 0 0.30746666666666667 1.41564 0.7416 3.6342133333333333 0.7416 1.9962 0 3.2563999999999997 -0.37673333333333336 3.5499333333333336 -0.5204666666666666l-0.4286 -0.24939999999999998c-0.3064 0.08360000000000001 -1.4456 0.33726666666666666 -3.1214 0.33726666666666666 -0.9867133333333333 0 -2.6865666666666663 -0.1819333333333333 -2.6865666666666663 -0.45953333333333335 0 -0.24953333333333333 1.0611199999999998 -0.442 1.3655599999999999 -0.49726666666666663 0.006693333333333333 -0.0012 0.013019999999999999 -0.002333333333333333 0.018959999999999998 -0.0034666666666666665l-0.06862666666666667 -0.039599999999999996Z" stroke-width="0.6667"></path>
</svg>